<svg xmlns="http://www.w3.org/2000/svg" viewBox="0 0 32 32">
  <rect width="32" height="32" rx="6" fill="#1a1a1a"/>
  <g fill="#2E9BE8">
    <rect x="3" y="4" width="26" height="3"/>
    <rect x="4" y="7" width="3" height="6"/>
    <rect x="3" y="13" width="3" height="6"/>
    <rect x="2" y="19" width="3" height="6"/>
    <rect x="1" y="25" width="6" height="3"/>
    <rect x="25" y="7" width="3" height="6"/>
    <rect x="26" y="13" width="3" height="6"/>
    <rect x="27" y="19" width="3" height="6"/>
    <rect x="25" y="25" width="6" height="3"/>
  </g>
  <g fill="#efefef">
    <rect x="11" y="7" width="2" height="2"/>
    <rect x="11" y="10" width="2" height="2"/>
    <rect x="11" y="13" width="2" height="2"/>
    <rect x="11" y="16" width="2" height="2"/>
    <rect x="19" y="7" width="2" height="2"/>
    <rect x="19" y="10" width="2" height="2"/>
    <rect x="19" y="13" width="2" height="2"/>
    <rect x="19" y="16" width="2" height="2"/>
    <rect x="8" y="19" width="16" height="3"/>
  </g>
</svg>
